<svg style="position: absolute; width: 0; height: 0; overflow: hidden;" version="1.1" xmlns="http://www.w3.org/2000/svg">
<defs>
<symbol id="user" viewBox="0 0 32 32">
<title>user</title>
<path d="M23.494 17.066c-0.432-0.058-0.869 0.084-1.177 0.393l-4.73 4.741c-0.954 0.954-2.509 0.954-3.463 0l-4.766-4.751c-0.306-0.304-0.737-0.445-1.165-0.392-3.439 0.43-6.135 3.377-6.135 6.926v6.645c0 0.758 0.614 1.372 1.371 1.372h24.731c0.758 0 1.371-0.614 1.371-1.372v-6.646c0-3.528-2.632-6.46-6.037-6.917zM15.833 0.241c-3.801 0-6.871 2.77-6.871 7.516s2.555 9.663 6.871 9.663c4.703 0 6.872-4.918 6.872-9.663s-3.071-7.516-6.872-7.516zM15.833 2.526c2.786 0 4.586 2.053 4.586 5.23 0 2.074-0.485 4.044-1.329 5.407-0.822 1.326-1.888 1.971-3.257 1.971-2.832 0-4.586-3.829-4.586-7.377 0-3.177 1.8-5.23 4.586-5.23z"></path>
</symbol>
<symbol id="box" viewBox="0 0 32 32">
<title>box</title>
<path d="M18.56 4.782l-11.074 6.095-2.813-1.633c-0.173-0.1-0.17-0.254 0.006-0.345l10.627-5.438c0.176-0.090 0.463-0.090 0.642 0l2.612 1.321zM22.073 6.559l-11.137 6.322 3.532 2.050c0.512 0.297 1.353 0.309 1.873 0.022l10.368-5.715c0.178-0.098 0.172-0.248-0.006-0.338l-4.631-2.341zM10.836 14.060v3.381l-3.598-1.969v-3.498l-2.924-1.696c-0.173-0.097-0.314-0.017-0.314 0.186v11.45c0 0.2 0.137 0.438 0.314 0.537l10.525 6.093c0.173 0.097 0.314 0.017 0.314-0.186v-10.738c0-0.593-0.423-1.311-0.942-1.601l-3.375-1.958zM17.175 16.018l10.257-5.742c0.173-0.097 0.314-0.017 0.314 0.186v11.45c0 0.2-0.137 0.438-0.314 0.537l-10.885 6.093c-0.173 0.097-0.314 0.017-0.314-0.186v-10.738c0-0.593 0.423-1.311 0.942-1.601zM7.551 16.538l2.972 1.627c0.173 0.095 0.313 0.331 0.313 0.528v0.898c0 0.197-0.141 0.279-0.313 0.185l-2.972-1.627c-0.173-0.095-0.313-0.331-0.313-0.528v-0.898c0-0.197 0.141-0.279 0.313-0.185z"></path>
</symbol>
<symbol id="star" viewBox="0 0 32 32">
<title>star</title>
<path d="M16.933 3.153l3.348 7.105c0.154 0.326 0.451 0.552 0.794 0.604l7.486 1.139c0.854 0.13 1.195 1.229 0.577 1.86l-5.422 5.535c-0.245 0.25-0.357 0.611-0.299 0.965l1.28 7.816c0.146 0.891-0.747 1.57-1.51 1.149l-6.702-3.69c-0.303-0.167-0.666-0.167-0.969 0l-6.702 3.69c-0.764 0.421-1.656-0.259-1.51-1.149l1.28-7.816c0.058-0.354-0.054-0.715-0.299-0.965l-5.422-5.535c-0.618-0.631-0.277-1.73 0.577-1.86l7.494-1.14c0.339-0.052 0.632-0.275 0.784-0.596l3.351-7.111c0.382-0.81 1.485-0.81 1.867 0z"></path>
</symbol>
<symbol id="cloack" viewBox="0 0 32 32">
<title>cloack</title>
<path d="M16 4c-7.732 0-14 6.268-14 14s6.268 14 14 14 14-6.268 14-14-6.268-14-14-14zM16 29.25c-6.213 0-11.25-5.037-11.25-11.25s5.037-11.25 11.25-11.25c6.213 0 11.25 5.037 11.25 11.25s-5.037 11.25-11.25 11.25zM29.212 8.974c0.501-0.877 0.788-1.892 0.788-2.974 0-3.314-2.686-6-6-6-1.932 0-3.65 0.913-4.747 2.331 4.121 0.851 7.663 3.287 9.96 6.643v0zM12.748 2.331c-1.097-1.418-2.816-2.331-4.748-2.331-3.314 0-6 2.686-6 6 0 1.082 0.287 2.098 0.788 2.974 2.297-3.356 5.838-5.792 9.96-6.643z"></path>
<path d="M16 18v-8h-2v10h8v-2z"></path>
</symbol>
<symbol id="dificulty" viewBox="0 0 32 32">
<title>dificulty</title>
<path d="M9 12h-6c-0.55 0-1 0.45-1 1v18c0 0.55 0.45 1 1 1h6c0.55 0 1-0.45 1-1v-18c0-0.55-0.45-1-1-1zM9 30h-6v-8h6v8zM19 8h-6c-0.55 0-1 0.45-1 1v22c0 0.55 0.45 1 1 1h6c0.55 0 1-0.45 1-1v-22c0-0.55-0.45-1-1-1zM19 30h-6v-10h6v10zM29 4h-6c-0.55 0-1 0.45-1 1v26c0 0.55 0.45 1 1 1h6c0.55 0 1-0.45 1-1v-26c0-0.55-0.45-1-1-1zM29 30h-6v-12h6v12z"></path>
</symbol>
<symbol id="leaf" viewBox="0 0 32 32">
<title>leaf</title>
<path d="M31.604 4.203c-3.461-2.623-8.787-4.189-14.247-4.189-6.754 0-12.257 2.358-15.099 6.469-1.335 1.931-2.073 4.217-2.194 6.796-0.108 2.296 0.278 4.835 1.146 7.567 2.965-8.887 11.244-15.847 20.79-15.847 0 0-8.932 2.351-14.548 9.631-0.003 0.004-0.078 0.097-0.207 0.272-1.128 1.509-2.111 3.224-2.846 5.166-1.246 2.963-2.4 7.030-2.4 11.931h4c0 0-0.607-3.819 0.449-8.212 1.747 0.236 3.308 0.353 4.714 0.353 3.677 0 6.293-0.796 8.231-2.504 1.736-1.531 2.694-3.587 3.707-5.764 1.548-3.325 3.302-7.094 8.395-10.005 0.292-0.167 0.48-0.468 0.502-0.804s-0.126-0.659-0.394-0.862z"></path>
</symbol>
</defs>
</svg>
